<svg id="btn_save" xmlns="http://www.w3.org/2000/svg" viewBox="0 0 56.42 22.92"><title>save</title><rect width="56.42" height="22.92" rx="5.25" ry="5.25" style="fill:#0fc"/><path d="M13,7v3.51a0.51,0.51,0,0,0,.45.49H15V7H13Z" transform="translate(-3.25 -3.08)" style="fill:#fff"/><path d="M16,7v4h4c0.23,0,0-.26,0-0.49V7H16Z" transform="translate(-3.25 -3.08)" style="fill:#fff"/><path d="M22.7,7H21.31S21,7.67,21,7.82v2.83c0,0.7-.19,1.35-0.89,1.35H13.6A1.65,1.65,0,0,1,12,10.65V7.82A2.57,2.57,0,0,1,12.4,7H11.08C10.36,7,9,7.83,9,8.55V20.08c0,0.72,1.36.92,2.08,0.92H22.7c0.72,0,.3-0.21.3-0.92V8.55C23,7.83,23.42,7,22.7,7Zm-6,10.39a1.44,1.44,0,1,1,1.45-1.44A1.44,1.44,0,0,1,16.71,17.39Z" transform="translate(-3.25 -3.08)" style="fill:#5c6664"/><text transform="translate(26.83 15.39)" style="font-size:12.594722747802734px;fill:#5c6664;font-family:Salina">Save</text></svg>