<svg id="h02" xmlns="http://www.w3.org/2000/svg" viewBox="0 0 144.54 56.13"><defs><style>.cls-1{fill:#060504;}.cls-2{fill:#424242;}</style></defs><title>h02</title><path class="cls-1" d="M144.54,0l-2.08,55.68s-7.24-11.87-6.64-17.27l-1.2,1.6s3.19-23.4-11-32.2c0,0-53.68,21.2-102.17,20.3,0,0,27.09-1.5,36.67-4,0,0-18.26,1.95-24.25.45,0,0,7.93-.15,10.18-1.05,0,0-22-3-29.63,10.2S11,48.35,2.46,55.41c-1.74,1.45-.58.27-0.58,0.27L0,0H144.54Zm-38,5.13h4c-8.32-4.88-23.46,4.2-24.21,4.65a26.29,26.29,0,0,0,3.86-4.17c-6.42,4.86-34.87,8.63-37.52,9a5.67,5.67,0,0,0,2.05-1.77c-9.88-4.35-25.75,4-25.75,4a12,12,0,0,0,.6-4.35c-7.33,0-17.21,8.7-17.21,8.7-0.6-7.8,6.89-16.8,6.89-16.8C6.06,10.56,7.7,39.51,7.7,39.51,10.5,28,26.93,16.77,27.45,16.42L25.36,20c15-8.25,25.3-5.7,25.3-5.7l-6.29.75C58,17.43,83.33,10.16,84,10c-1.84,1.95-20,6.14-20,6.14,15.56,0,35.93-9.6,35.93-9.6,4.78-1.8,6.59,1.5,6.59,1.5V5.13Z" transform="translate(0 0)"/><path class="cls-2" d="M86.31,9.78c0.75-.45,15.89-9.53,24.21-4.65h-4V8s-1.81-3.3-6.59-1.5c0,0-20.37,9.6-35.93,9.6,0,0,18.2-4.19,20-6.14-0.69.19-26.07,7.46-39.65,5.09l6.29-.75S40.33,11.76,25.36,20l2.09-3.59C26.93,16.77,10.5,28,7.7,39.51c0,0-1.64-28.95,11.53-35.1,0,0-7.49,9-6.89,16.8,0,0,9.88-8.7,17.21-8.7a12,12,0,0,1-.6,4.35s15.87-8.4,25.75-4a5.67,5.67,0,0,1-2.05,1.77c2.65-.34,31.1-4.11,37.52-9A26.29,26.29,0,0,1,86.31,9.78Z" transform="translate(0 0)"/></svg>