<svg id="headerLogo" xmlns="http://www.w3.org/2000/svg" viewBox="0 0 751.6 244.19"><defs><style>.cls-1{fill:#9e9e9e;}.cls-2{fill:#fffabf;}.cls-3{fill:#1fddb0;}.cls-4{fill:#fff;}.cls-5{fill:none;stroke:#1fddb0;stroke-miterlimit:10;stroke-width:3px;}.cls-6,.cls-7{fill:#1cc699;}.cls-7{fill-rule:evenodd;}.cls-8{fill:#15537c;}.cls-9{fill:#a7dfe8;}.cls-10{fill:#196b99;}.cls-11{fill:#b1e6f2;}.cls-12{fill:#1e82af;}.cls-13{fill:#1e7b9b;}.cls-14{fill:#bfe5ed;}.cls-15{fill:#8bcad1;}.cls-16{fill:#75b7ba;}.cls-16,.cls-17,.cls-19{opacity:0.5;}.cls-17{fill:#8dc6cc;}.cls-18{fill:#b5e0e5;}.cls-19{fill:#a3e2e5;}</style></defs><title>headerLogo</title><path class="cls-1" d="M751.75,0l0-.05L0.23,0.12,0.59,244.06s71,1,387.59-4.34C534.69,237.24,623.46,186,676.56,131,676.56,131,737,74,751.75,0Z" transform="translate(-0.17 0.05)"/><path class="cls-2" d="M730.83,0.95s-47.74,226-344.11,231S0.5,233.17.5,233.17L0.17,0.15Z" transform="translate(-0.17 0.05)"/><circle class="cls-3" cx="91.26" cy="110.45" r="77"/><circle class="cls-4" cx="91.26" cy="110.45" r="72.15"/><path class="cls-3" d="M128.9,137.11c-0.62-7.79-1.73-14.5-1.73-14.5-3.35,9.39-7,14.83-10.73,18.51A72.3,72.3,0,0,0,128.9,137.11Z" transform="translate(-0.17 0.05)"/><path class="cls-3" d="M286.37,94l3,4.82-3.21,2-3-4.82a21.93,21.93,0,0,1-10,2.41A22.29,22.29,0,1,1,286.37,94ZM273.12,57.77a18.4,18.4,0,1,0,0,36.81,18.22,18.22,0,0,0,8-1.81l-2.71-4.42,3.21-2,2.76,4.47A18.41,18.41,0,0,0,273.12,57.77ZM260.81,77c0,7.73,5.22,13.76,13.11,14.21h-0.8a15,15,0,0,1,0-30,11.31,11.31,0,0,1,2,.75A15.13,15.13,0,0,0,260.81,77Zm31.54,17.78L293.76,97l-1.36.8h-1.56l1.41-.8-1.46-2.31a24.73,24.73,0,0,0,8-18.53,25.68,25.68,0,0,0-11.9-21.69h1.51a25.54,25.54,0,0,1,12,21.69A24.73,24.73,0,0,1,292.35,94.73Z" transform="translate(-0.17 0.05)"/><path class="cls-3" d="M321.32,97.8a17.31,17.31,0,0,1-17.37-17.32v-26h3.82v26a13.56,13.56,0,0,0,27.12,0v-26h3.77v26A17.3,17.3,0,0,1,321.32,97.8Zm0-7.23a10.15,10.15,0,0,1-10.19-10.09v-26h4.22l-2.66,26c0,0.2-.05.35-0.05,0.55,0,5,4.62,8.94,9.44,9.54h-0.75Zm12.81,7.28h-1.56a20.69,20.69,0,0,0,9.54-17.37v-26h1.51v26A20.77,20.77,0,0,1,334.12,97.85Z" transform="translate(-0.17 0.05)"/><path class="cls-3" d="M347.22,97.8V54.46H351V97.8h-3.77Zm8.79,0h-1.56V54.46h3.06Z" transform="translate(-0.17 0.05)"/><path class="cls-3" d="M383.38,98.4a22.25,22.25,0,1,1,12.2-40.83l-2.06,3.21a18.07,18.07,0,0,0-10.14-3,18.4,18.4,0,1,0,10.14,33.8l2.06,3.16A21.63,21.63,0,0,1,383.38,98.4ZM371,77c0,7.73,5.32,13.81,13.16,14.21h-0.8a15,15,0,0,1,0-30,10.77,10.77,0,0,1,1.91.75A15,15,0,0,0,371,77ZM396.18,63.6a8.06,8.06,0,0,0-1.1-.65l3.11-4.67L399.25,59Zm3,31.89-4.07-6.13a8,8,0,0,0,1.1-.65l4.07,6.08Z" transform="translate(-0.17 0.05)"/><path class="cls-3" d="M417.87,87.75l5.37,8.79-3.21,2-5.57-9.09a20.31,20.31,0,0,1-5.82,1.16,6.17,6.17,0,0,1-1-.1V97.8h-3.77V54.51h4.47A18,18,0,0,1,417.87,87.75Zm-9.54-29.48h-0.7V86.7h0.7A14.21,14.21,0,1,0,408.33,58.28Zm4.32,35.45V97.8h-1.56V93.73l1.81-.3,0.15,0.25A1,1,0,0,0,412.65,93.73Zm0-11.35c-0.5.2-1.05,0.35-1.51,0.55V62.14a16,16,0,0,1,3.31,1.41Zm11.25,6.23L429.17,97,424,100.16h-1.51L427.61,97l-5.27-8.44a21.24,21.24,0,0,0-2.46-34.1h1.56a21.31,21.31,0,0,1,9.84,18A21.06,21.06,0,0,1,423.9,88.61Z" transform="translate(-0.17 0.05)"/><path class="cls-3" d="M464.27,97.8l-1.61-4.42h-22.1L439,97.8h-4.07l16.72-45.45L468.28,97.8h-4ZM451.61,63.45L442,89.61H461.2Zm-7.53,34.4h-1.51l0.4-1h1.51Zm4.27-11.7h-1.51l4.77-12.86,1.81,4.92ZM472,97.85L455.68,54.56h1.56l16.22,43.29H472Z" transform="translate(-0.17 0.05)"/><path class="cls-3" d="M480.83,85V97.8h-3.77V54.51h17.27v3.77H480.83V81.23h13.66V85H480.83Zm8.74-22.35L484.1,77.76V61.64H497.4V54.51H499v8.13h-9.39ZM485.8,88.46V97.8H484.3V87.45h13.26V77.76h1.56v10.7H485.8Z" transform="translate(-0.17 0.05)"/><path class="cls-3" d="M519,58.28V97.8h-3.77V58.28h-12.5V54.51h28.72v3.77H519Zm-16.27,5V61.74h8.94V63.3h-8.94ZM524,65.71V97.8h-1.56V61.74h9.54Zm10.55-4V54.51h1.56v7.23h-1.56Z" transform="translate(-0.17 0.05)"/><path class="cls-3" d="M544.45,97.8a10.28,10.28,0,0,1-7.83-3.46l2.86-2.56a6.53,6.53,0,0,0,5,2.26,6.75,6.75,0,0,0,4.92-11.3l-6.23-6.88a13.45,13.45,0,0,1-3.62-9.14A12.18,12.18,0,0,1,552,54.51v3.77a8.42,8.42,0,0,0-8.69,8.44c0,8.84,11.65,11.35,11.65,20.59A10.52,10.52,0,0,1,544.45,97.8ZM555,97.85h-1.51a13.36,13.36,0,0,0,4.82-10.55c0-10.9-11.6-14-11.6-20.59a4.88,4.88,0,0,1,5.17-5h1.66v0.2c-2.86.7-4.07,2.66-4.07,5.52A5.58,5.58,0,0,0,551,71l5.77,6.83a14.23,14.23,0,0,1,3.06,9.44A13.36,13.36,0,0,1,555,97.85Zm0-36V54.51h1.56v7.23A8.16,8.16,0,0,0,555,61.89Z" transform="translate(-0.17 0.05)"/><line class="cls-5" x1="163.83" y1="111.55" x2="628.83" y2="111.55"/><path class="cls-6" d="M231.55,133.59a2.07,2.07,0,0,1-2-.32,1.44,1.44,0,0,1,0-1.76,2.42,2.42,0,0,0,1.47-.35,3.14,3.14,0,0,0,1.1-1,4.6,4.6,0,0,0,.75-2.13,2.53,2.53,0,0,0-.55-1.93,1.71,1.71,0,0,0-.66-0.49,2.85,2.85,0,0,0-1-.14,3.67,3.67,0,0,0-2.08.63,6.43,6.43,0,0,0-1.67,1.64,14,14,0,0,0-2,5,25.61,25.61,0,0,0-.58,6.17,24.78,24.78,0,0,0,.2,2.68,16.61,16.61,0,0,0,.52,2.48,9.67,9.67,0,0,0,1.7,3.58,3.76,3.76,0,0,0,2.74,1.59,5.78,5.78,0,0,0,2.8-.37,8.14,8.14,0,0,0,2.19-1.38,8.75,8.75,0,0,0,1.12-1.24,15,15,0,0,0,.89-1.36,15.37,15.37,0,0,0,1.18-2.51,19.5,19.5,0,0,0,.55-1.87l1.07,0.06q-0.17.66-.61,2a16.11,16.11,0,0,1-1.3,2.77,12.36,12.36,0,0,1-1,1.53,10.87,10.87,0,0,1-1.27,1.38,8.63,8.63,0,0,1-2.51,1.56,6.79,6.79,0,0,1-2.54.46l-0.69,0a8.05,8.05,0,0,1-5.94-3.06,11.35,11.35,0,0,1-2.28-5,18.21,18.21,0,0,1-.37-3.69q0-1.12.14-2.25a21.24,21.24,0,0,1,.63-3.11,19.53,19.53,0,0,1,1.12-2.85,12.22,12.22,0,0,1,3.32-4.1,7.48,7.48,0,0,1,4.7-1.56h0.09a3.47,3.47,0,0,1,1.3.23,3.59,3.59,0,0,1,1,.63,4.59,4.59,0,0,1,1.5,2.8,5.27,5.27,0,0,1-.4,3.2,4.19,4.19,0,0,1-1,1.35A3.33,3.33,0,0,1,231.55,133.59Z" transform="translate(-0.17 0.05)"/><path class="cls-6" d="M240.11,136.64a12.4,12.4,0,0,0,2.25-.23,3.91,3.91,0,0,1,1.9,0,0.71,0.71,0,0,1,.43.35,0.94,0.94,0,0,1,.09.63,19,19,0,0,0-.23,2.16q0,1.1,0,2.13a17.86,17.86,0,0,0,.37,3.35q0.32,1.38.75,1.44a1.37,1.37,0,0,0,1.12-1,17.2,17.2,0,0,0,.92-2.25q0.26-.84.46-1.56t0.26-1a3.65,3.65,0,0,1,.55-0.09,2.14,2.14,0,0,1,.52.06l-0.4,1.64a16.23,16.23,0,0,1-.81,2.42,9.56,9.56,0,0,1-.61,1.27A6.07,6.07,0,0,1,247,147a3,3,0,0,1-.84.69,1.63,1.63,0,0,1-.78.2h-0.14a4.71,4.71,0,0,1-2.36-.81,2.72,2.72,0,0,1-1.24-1.7,11,11,0,0,1-.12-1.62,16.26,16.26,0,0,1,.09-1.67q0.11-1.5.29-2.68a2,2,0,0,0,0-1.33l-1-.2a7.12,7.12,0,0,0-.92-0.12l-0.29,1.3-0.35,1.7a1.37,1.37,0,0,1-.49,0l-0.55-.06q0.14-.69.38-1.76t0.26-1.38a2.51,2.51,0,0,1-1-.89,1.82,1.82,0,0,1-.37-1V135.6a2.74,2.74,0,0,1,.32-1.38,1.31,1.31,0,0,1,.69-0.63,1.06,1.06,0,0,0,.26,0,0.77,0.77,0,0,1,.35.09,0.88,0.88,0,0,1,.43.32,2.49,2.49,0,0,1,.52,1.38A5.36,5.36,0,0,1,240.11,136.64Z" transform="translate(-0.17 0.05)"/><path class="cls-6" d="M255.11,137.71A2.67,2.67,0,0,1,255,139a3.56,3.56,0,0,1-.58,1.18,6.24,6.24,0,0,1-2.6,2,7.19,7.19,0,0,1-1,.4q0.09,0.23.17,0.52a7.28,7.28,0,0,0,1,2.1,3.8,3.8,0,0,0,.72.84,1.56,1.56,0,0,0,.89.35,2.59,2.59,0,0,0,1.38-.26,3.68,3.68,0,0,0,1.15-.84,7.18,7.18,0,0,0,1.47-2.45,16.61,16.61,0,0,0,.81-2.48,1.33,1.33,0,0,1,.49,0,4.26,4.26,0,0,1,.52,0,16.52,16.52,0,0,1-.87,2.85,7.85,7.85,0,0,1-1.9,3,5.32,5.32,0,0,1-1.53,1.07,4,4,0,0,1-1.67.35l-0.29,0a4.77,4.77,0,0,1-3.29-1.33,6.31,6.31,0,0,1-1.59-2.77,6.78,6.78,0,0,1-.26-1.64v-0.26a6.46,6.46,0,0,1,.12-1.27,5.2,5.2,0,0,1,1.64-3.2,6.47,6.47,0,0,1,1.85-1.07,2.76,2.76,0,0,1,1-.12,3.47,3.47,0,0,1,1.24.23A1.88,1.88,0,0,1,255.11,137.71Zm-4,3.72a4.18,4.18,0,0,0,1.5-1.56,5,5,0,0,0,.69-1.53,2.65,2.65,0,0,0-.12-1.47q-0.23-.61-1.12.06a2.32,2.32,0,0,0-.61.69,3.56,3.56,0,0,0-.4.87,7.22,7.22,0,0,0-.35,1.7c0,0.56-.06.9-0.06,1a3.44,3.44,0,0,0,0,.43A3.2,3.2,0,0,0,251.07,141.43Z" transform="translate(-0.17 0.05)"/><path class="cls-6" d="M267,138.55a2,2,0,0,1-.32,1,1.38,1.38,0,0,1-.55.46,1.58,1.58,0,0,1-1.24-.12,2,2,0,0,1-.87-0.66,1.87,1.87,0,0,0,.69-0.84,1.56,1.56,0,0,0,.14-1.18,0.92,0.92,0,0,0-.87-0.61,1.8,1.8,0,0,0-1.67.87,8.15,8.15,0,0,0-1.33,2.39,10.16,10.16,0,0,0-.66,3.4q0,1.7,1,2a1.08,1.08,0,0,0,1.21-.43,5.65,5.65,0,0,0,1.07-1.64,11.06,11.06,0,0,0,.4-1.12q0.14-.58.23-1.12a1,1,0,0,1,1.47,0,1.9,1.9,0,0,1,1,1.18,3.6,3.6,0,0,0-.35,1.38,5,5,0,0,0,.17,1.7,2.55,2.55,0,0,0,.43.92,1.18,1.18,0,0,0,.72.46,1.11,1.11,0,0,0,1-.4,4.62,4.62,0,0,0,.84-1.21,12.72,12.72,0,0,0,.92-2.48q0.37-1.33.49-1.9a1.29,1.29,0,0,1,.58-0.09,1.39,1.39,0,0,1,.49.09q-0.09.46-.4,1.64a16.76,16.76,0,0,1-.87,2.42A10,10,0,0,1,270,146a5.63,5.63,0,0,1-.78,1.07,3.28,3.28,0,0,1-.92.66,1.91,1.91,0,0,1-.86.2H267.3a3.21,3.21,0,0,1-1.15-.32,3.57,3.57,0,0,1-.87-0.63,4.16,4.16,0,0,1-1-1.53,7.36,7.36,0,0,1-.37-1.18,4,4,0,0,1-1.07,1.59,3.67,3.67,0,0,1-1.93,1.12,2.49,2.49,0,0,1-.92-0.06,1.87,1.87,0,0,1-.87-0.52,4.24,4.24,0,0,1-1.27-3.17V143a8.46,8.46,0,0,1,1-3.89,7.21,7.21,0,0,1,1.64-2,4.12,4.12,0,0,1,2.13-1,7.29,7.29,0,0,1,1.24-.12,3.08,3.08,0,0,1,2.16.69A2.36,2.36,0,0,1,267,138.55Z" transform="translate(-0.17 0.05)"/><path class="cls-6" d="M268.69,133.44h-0.06c-0.15,0-.24-0.18-0.26-0.55v0a0.7,0.7,0,0,1,.23-0.66,14.27,14.27,0,0,1,2.11-.63l0.14,0q0-.69.06-1.3a2.8,2.8,0,0,0-.37-1.85,1.3,1.3,0,0,1,1.15-.75,1.63,1.63,0,0,1,.32,0,2.14,2.14,0,0,1,1.33.46,3.21,3.21,0,0,1,.52.61,2.46,2.46,0,0,1,.26.89q-0.09.49-.14,1.1a17.47,17.47,0,0,0,1.79-.61,2.65,2.65,0,0,0,1.07-.61,0.82,0.82,0,0,1,.92.81v0.12a1.38,1.38,0,0,1-.81,1.18,7.59,7.59,0,0,1-2,.49l-1.07.17a5.71,5.71,0,0,0,0,.58q-0.14,2-.17,4.27,0,1.18,0,2.34t0.12,2.22a19.32,19.32,0,0,0,.49,3.32q0.35,1.36,1,1.47a1.64,1.64,0,0,0,.87-0.06,2.3,2.3,0,0,0,.78-0.49,5.24,5.24,0,0,0,1.18-1.7q0.49-1.1.81-2l0.26-.92q0.11-.4.17-0.63a2.14,2.14,0,0,1,.52-0.06,1.08,1.08,0,0,1,.52.06q-0.09.43-.37,1.47a13.88,13.88,0,0,1-.81,2.19,10.33,10.33,0,0,1-.66,1.18,5.38,5.38,0,0,1-.81,1,3.92,3.92,0,0,1-1.21.84,2.67,2.67,0,0,1-1.1.23h-0.4a4,4,0,0,1-2.31-1,5.76,5.76,0,0,1-1.36-2.1,11.11,11.11,0,0,1-.66-3q-0.11-1.33-.12-2.71V138q0-1.15.12-2.28t0.14-2.13c0-.27,0-0.53,0-0.78l-0.89.2A3.44,3.44,0,0,0,268.69,133.44Z" transform="translate(-0.17 0.05)"/><path class="cls-6" d="M285.18,137.71a2.67,2.67,0,0,1-.09,1.3,3.56,3.56,0,0,1-.58,1.18,6.24,6.24,0,0,1-2.6,2,7.19,7.19,0,0,1-1,.4q0.09,0.23.17,0.52a7.28,7.28,0,0,0,1,2.1,3.8,3.8,0,0,0,.72.84,1.56,1.56,0,0,0,.89.35,2.59,2.59,0,0,0,1.38-.26,3.68,3.68,0,0,0,1.15-.84,7.18,7.18,0,0,0,1.47-2.45,16.61,16.61,0,0,0,.81-2.48,1.33,1.33,0,0,1,.49,0,4.26,4.26,0,0,1,.52,0,16.52,16.52,0,0,1-.87,2.85,7.85,7.85,0,0,1-1.9,3,5.32,5.32,0,0,1-1.53,1.07,4,4,0,0,1-1.67.35l-0.29,0a4.77,4.77,0,0,1-3.29-1.33,6.31,6.31,0,0,1-1.59-2.77,6.78,6.78,0,0,1-.26-1.64v-0.26a6.46,6.46,0,0,1,.12-1.27,5.2,5.2,0,0,1,1.64-3.2,6.47,6.47,0,0,1,1.85-1.07,2.76,2.76,0,0,1,1-.12,3.47,3.47,0,0,1,1.24.23A1.88,1.88,0,0,1,285.18,137.71Zm-4,3.72a4.18,4.18,0,0,0,1.5-1.56,5,5,0,0,0,.69-1.53,2.65,2.65,0,0,0-.12-1.47q-0.23-.61-1.12.06a2.32,2.32,0,0,0-.61.69,3.56,3.56,0,0,0-.4.87,7.22,7.22,0,0,0-.35,1.7c0,0.56-.06.9-0.06,1a3.44,3.44,0,0,0,0,.43A3.2,3.2,0,0,0,281.15,141.43Z" transform="translate(-0.17 0.05)"/><path class="cls-6" d="M304.85,138.55a2,2,0,0,1-.32,1,1.38,1.38,0,0,1-.55.46,1.58,1.58,0,0,1-1.24-.12,2,2,0,0,1-.87-0.66,1.87,1.87,0,0,0,.69-0.84,1.56,1.56,0,0,0,.14-1.18,0.92,0.92,0,0,0-.87-0.61,1.8,1.8,0,0,0-1.67.87,8.15,8.15,0,0,0-1.33,2.39,10.16,10.16,0,0,0-.66,3.4q0,1.7,1,2a1.08,1.08,0,0,0,1.21-.43,5.65,5.65,0,0,0,1.07-1.64,11.06,11.06,0,0,0,.4-1.12q0.14-.58.23-1.12a1,1,0,0,1,1.47,0,1.9,1.9,0,0,1,1,1.18,3.6,3.6,0,0,0-.35,1.38,5,5,0,0,0,.17,1.7,2.55,2.55,0,0,0,.43.92,1.18,1.18,0,0,0,.72.46,1.11,1.11,0,0,0,1-.4,4.62,4.62,0,0,0,.84-1.21,12.72,12.72,0,0,0,.92-2.48q0.37-1.33.49-1.9a1.29,1.29,0,0,1,.58-0.09,1.39,1.39,0,0,1,.49.09q-0.09.46-.4,1.64a16.76,16.76,0,0,1-.87,2.42,10,10,0,0,1-.66,1.27,5.63,5.63,0,0,1-.78,1.07,3.28,3.28,0,0,1-.92.66,1.91,1.91,0,0,1-.86.2H305.2a3.21,3.21,0,0,1-1.15-.32,3.57,3.57,0,0,1-.87-0.63,4.16,4.16,0,0,1-1-1.53,7.36,7.36,0,0,1-.37-1.18,4,4,0,0,1-1.07,1.59,3.67,3.67,0,0,1-1.93,1.12,2.49,2.49,0,0,1-.92-0.06,1.87,1.87,0,0,1-.87-0.52,4.24,4.24,0,0,1-1.27-3.17V143a8.46,8.46,0,0,1,1-3.89,7.21,7.21,0,0,1,1.64-2,4.12,4.12,0,0,1,2.13-1,7.29,7.29,0,0,1,1.24-.12,3.08,3.08,0,0,1,2.16.69A2.36,2.36,0,0,1,304.85,138.55Z" transform="translate(-0.17 0.05)"/><path class="cls-6" d="M331.07,133.9a2.23,2.23,0,0,1-3.52-1.44,3.52,3.52,0,0,0,1.18-.52,4,4,0,0,0,.81-0.81,3.44,3.44,0,0,0,.4-1,3.33,3.33,0,0,0,0-1.15A3.54,3.54,0,0,0,329,127a3.31,3.31,0,0,0-2-1.12,4.53,4.53,0,0,0-3.75.89,4.86,4.86,0,0,0-1.62,4.07,3,3,0,0,0,.4,1.56,4.78,4.78,0,0,0,1,1.33,14.25,14.25,0,0,0,3,2.16,22.22,22.22,0,0,1,3.26,2.34,9.42,9.42,0,0,1,2,2.48,5.76,5.76,0,0,1,.72,2.94,2.87,2.87,0,0,1,0,.4,7.06,7.06,0,0,1-.55,2.62,7,7,0,0,1-1.3,1.93,6.88,6.88,0,0,1-3.66,1.85,11.58,11.58,0,0,1-4.3.06,6.1,6.1,0,0,1-2.77-1.27,7.48,7.48,0,0,1-2-2.31,7,7,0,0,1-.92-3.46q0-.37,0-0.75a4.27,4.27,0,0,1,2.31-3.4,1.34,1.34,0,0,1,1.67,1,3.26,3.26,0,0,1,0,2.34,1.08,1.08,0,0,0-1.61.89,4.8,4.8,0,0,0,.26,2.94,5.22,5.22,0,0,0,.52,1,4.14,4.14,0,0,0,.69.92,4.61,4.61,0,0,0,.92.72,3.73,3.73,0,0,0,1.12.4,5.32,5.32,0,0,0,3-.29,5.42,5.42,0,0,0,2.39-1.87,6.63,6.63,0,0,0,.81-1.56,7.6,7.6,0,0,0,.35-1.9,3.61,3.61,0,0,0-.72-2.39,11.92,11.92,0,0,0-2-1.93q-0.78-.58-1.64-1.18t-1.7-1.21a14.3,14.3,0,0,1-2.68-2.71,5.81,5.81,0,0,1-1-3.78,5.38,5.38,0,0,1,1.24-3.46,6.67,6.67,0,0,1,2.88-2,7.6,7.6,0,0,1,1.9-.4l0.58,0a6.77,6.77,0,0,1,1.38.14,5.36,5.36,0,0,1,3.35,1.85A5.82,5.82,0,0,1,332,130.1,6,6,0,0,1,331.07,133.9Z" transform="translate(-0.17 0.05)"/><path class="cls-6" d="M351.54,137.85a3,3,0,0,1-.06,1.3,4.61,4.61,0,0,1-.61,1.18,6.38,6.38,0,0,1-2.57,2,7.16,7.16,0,0,1-1,.4q0.09,0.23.17,0.52a7.74,7.74,0,0,0,1,2.13,3.26,3.26,0,0,0,.72.81,1.67,1.67,0,0,0,.89.35,2.79,2.79,0,0,0,2.39-1,9,9,0,0,0,1.56-2.36,13.22,13.22,0,0,0,.52-1.44q0.23-.72.35-1.27a3.64,3.64,0,0,1,.49,0l0.55,0.06a20.62,20.62,0,0,1-.89,2.85,8.35,8.35,0,0,1-1.87,3,5.24,5.24,0,0,1-1.56,1,3.88,3.88,0,0,1-1.64.35h-0.29a5.79,5.79,0,0,1-2-.49,4.83,4.83,0,0,1-1.47-1,5.58,5.58,0,0,1-1.3-2.1l-0.49.17a14.55,14.55,0,0,1-1.38.46l-0.81.26a6.19,6.19,0,0,1-1.21,1.64,3.73,3.73,0,0,1-1.27.84,3.62,3.62,0,0,1-1.53.26,0.8,0.8,0,0,1-.81-1.15,2.17,2.17,0,0,1,1.44-1.56l1-.35a4.21,4.21,0,0,0,.14-0.58q0.26-1.27.4-2.54a16.56,16.56,0,0,0,0-2.91q-0.14-1.27-.63-1.27a2.08,2.08,0,0,0-1.33.89,7.82,7.82,0,0,0-1.33,2.54,12.39,12.39,0,0,0-.52,1.9,15.87,15.87,0,0,0-.2,2.22q0,1.64,0,3.52,0,0.84,0,1.69a10.53,10.53,0,0,1,1.38-.25,26.49,26.49,0,0,1,3.55-.17q1.21,0,2.45.12l2.42,0.14a32,32,0,0,0,4.1,0,5.53,5.53,0,0,0,3-1,0.89,0.89,0,0,1,.61.66,3.19,3.19,0,0,1,.14,1,1.28,1.28,0,0,1,0,.25,4.37,4.37,0,0,1-.35,1.56,1.13,1.13,0,0,1-.75.81,9,9,0,0,1-2.94-.09q-1.59-.26-3.26-0.69l-2.19-.61-2.19-.55a20,20,0,0,0-3.89-.46,6.69,6.69,0,0,0-2.08.32v1.1q0,2.22-.23,4.12a8.71,8.71,0,0,1-.84,3.06,2.7,2.7,0,0,1-.81,1,1.84,1.84,0,0,1-1.07.32h-0.06a2.32,2.32,0,0,1-1.3-.4,2.53,2.53,0,0,1-.81-1,4.1,4.1,0,0,1-.35-1.73,7.23,7.23,0,0,1,.09-1.07,8.9,8.9,0,0,1,1.21-3.17,8.46,8.46,0,0,1,1.1-1.41,5.16,5.16,0,0,1,1-.84q0-1.12,0-2.25,0-3.49-.32-6.6a15.53,15.53,0,0,0-.81-4.38,1.56,1.56,0,0,1,.14-0.81,2,2,0,0,1,.43-0.55,2,2,0,0,1,1.18-.37h0.09a1.79,1.79,0,0,1,.89.17,12.71,12.71,0,0,1,.29,1.9q0.11,1.21.14,1.93,0.09-.17.55-1.21a6.14,6.14,0,0,1,1.3-1.82,2.89,2.89,0,0,1,.75-0.55,1.74,1.74,0,0,1,.84-0.2,2.76,2.76,0,0,1,2.65,1.73,7.18,7.18,0,0,1,.58,3.78,8.43,8.43,0,0,1-.4,1.93,15.64,15.64,0,0,0,1.87-.81,9.18,9.18,0,0,1-.09-1.24,6.31,6.31,0,0,1,.12-1.24,5.16,5.16,0,0,1,1.64-3.17,6.27,6.27,0,0,1,1.85-1.1,4.19,4.19,0,0,1,1-.12,3.46,3.46,0,0,1,1.24.23A1.89,1.89,0,0,1,351.54,137.85ZM334,152.65a5.41,5.41,0,0,0-.72,1.21,6.79,6.79,0,0,0-.49,1.41,10.08,10.08,0,0,0-.23,1.44,7.38,7.38,0,0,0,.12,2.31,1.11,1.11,0,0,0,.61,1q0.35,0,.58-1.59t0.35-4q0-1.07.06-2.19A3.9,3.9,0,0,0,334,152.65ZM339,145.9a1.23,1.23,0,0,0-.81.69q-0.2.49,0.26,0.52a0.58,0.58,0,0,0,.43-0.23,2,2,0,0,0,.4-0.66q0.09-.2.17-0.46Zm8.54-4.35A4.24,4.24,0,0,0,349,140a5.32,5.32,0,0,0,.69-1.56,2.73,2.73,0,0,0-.09-1.44q-0.23-.63-1.15.06a2.53,2.53,0,0,0-.61.66,7.36,7.36,0,0,0-.4.89,6.87,6.87,0,0,0-.35,1.7,7.08,7.08,0,0,0,0,1,2.69,2.69,0,0,0,0,.38Z" transform="translate(-0.17 0.05)"/><path class="cls-6" d="M362.15,137.74a2.25,2.25,0,0,1,.06.86,2.05,2.05,0,0,1-.26.75,2.55,2.55,0,0,1-1.67,1.24q-1.1.26-.89-0.58a1.76,1.76,0,0,0,.89-1.35,1.73,1.73,0,0,0-.32-1.47,1.8,1.8,0,0,0-.37-0.29,1.14,1.14,0,0,0-.52-0.06,1.74,1.74,0,0,0-1.41,1.33,7.05,7.05,0,0,0-.29,2.77,9.65,9.65,0,0,0,1,3.6,2.91,2.91,0,0,0,2.39,1.85,2.61,2.61,0,0,0,1.44-.23,3.92,3.92,0,0,0,1.15-.81,6.81,6.81,0,0,0,1.56-2.39,18,18,0,0,0,.84-2.48,1.82,1.82,0,0,1,.49-0.06l0.55,0.06a23.65,23.65,0,0,1-.92,2.88,8.56,8.56,0,0,1-2,3,5.15,5.15,0,0,1-1.59,1,4.26,4.26,0,0,1-1.67.32h-0.35a6.41,6.41,0,0,1-2.1-.49,5.38,5.38,0,0,1-1.59-1,6.24,6.24,0,0,1-1.76-2.8,7.43,7.43,0,0,1-.29-2,5.81,5.81,0,0,1,.09-1,6.76,6.76,0,0,1,.52-1.56,7.34,7.34,0,0,1,.86-1.27,5.5,5.5,0,0,1,2.28-1.56,4.36,4.36,0,0,1,1.33-.29,2.54,2.54,0,0,1,1,.17,2.7,2.7,0,0,1,1,.63A3,3,0,0,1,362.15,137.74Z" transform="translate(-0.17 0.05)"/><path class="cls-6" d="M368.38,136.56q-0.09,1-.26,2.08t-0.32,2.22a24.27,24.27,0,0,0-.2,3.78q0.06,1.64,1.1,1.85a1.31,1.31,0,0,0,1.3-.92,12.72,12.72,0,0,0,1-2.31q0.29-.84.49-1.56t0.29-1.1l0.52-.06a1.93,1.93,0,0,1,.52.06q-0.09.46-.37,1.64a20.74,20.74,0,0,1-.81,2.39q-0.29.64-.63,1.24a5,5,0,0,1-.72,1,2.64,2.64,0,0,1-.87.63,1.59,1.59,0,0,1-.72.17l-0.23,0a3.9,3.9,0,0,1-2.16-.78,3.49,3.49,0,0,1-1.07-1.56,5.15,5.15,0,0,1-.29-1.59v-0.4a10.26,10.26,0,0,1,.09-1.33,27.2,27.2,0,0,1,.43-3.06,3,3,0,0,0,0-1.93,2,2,0,0,1,1.47-.89,3.79,3.79,0,0,1,.61-0.06A0.78,0.78,0,0,1,368.38,136.56ZM365.9,132a1.36,1.36,0,0,0-.17-1,1.39,1.39,0,0,1-.2-0.81,3.54,3.54,0,0,1,0-.43,1.15,1.15,0,0,1,1-1,3.32,3.32,0,0,1,.78-0.12,1.33,1.33,0,0,1,.52.09,1.88,1.88,0,0,1,.84,1,2.23,2.23,0,0,1,.2.89,2,2,0,0,1-.06.49,1.56,1.56,0,0,1-1.38,1,5.72,5.72,0,0,1-.87.14A0.83,0.83,0,0,1,365.9,132Z" transform="translate(-0.17 0.05)"/><path class="cls-6" d="M380.21,138.55a2,2,0,0,1-.32,1,1.38,1.38,0,0,1-.55.46,1.58,1.58,0,0,1-1.24-.12,2,2,0,0,1-.87-0.66,1.87,1.87,0,0,0,.69-0.84,1.56,1.56,0,0,0,.14-1.18,0.92,0.92,0,0,0-.87-0.61,1.8,1.8,0,0,0-1.67.87,8.15,8.15,0,0,0-1.33,2.39,10.16,10.16,0,0,0-.66,3.4q0,1.7,1,2a1.08,1.08,0,0,0,1.21-.43,5.65,5.65,0,0,0,1.07-1.64,11.06,11.06,0,0,0,.4-1.12q0.14-.58.23-1.12a1,1,0,0,1,1.47,0,1.9,1.9,0,0,1,1,1.18,3.6,3.6,0,0,0-.35,1.38,5,5,0,0,0,.17,1.7,2.55,2.55,0,0,0,.43.92,1.18,1.18,0,0,0,.72.46,1.11,1.11,0,0,0,1-.4,4.62,4.62,0,0,0,.84-1.21,12.72,12.72,0,0,0,.92-2.48q0.37-1.33.49-1.9a1.29,1.29,0,0,1,.58-0.09,1.39,1.39,0,0,1,.49.09q-0.09.46-.4,1.64a16.76,16.76,0,0,1-.87,2.42,10,10,0,0,1-.66,1.27,5.63,5.63,0,0,1-.78,1.07,3.28,3.28,0,0,1-.92.66,1.91,1.91,0,0,1-.86.2h-0.17a3.21,3.21,0,0,1-1.15-.32,3.57,3.57,0,0,1-.87-0.63,4.16,4.16,0,0,1-1-1.53,7.36,7.36,0,0,1-.37-1.18,4,4,0,0,1-1.07,1.59,3.67,3.67,0,0,1-1.93,1.12,2.49,2.49,0,0,1-.92-0.06,1.87,1.87,0,0,1-.87-0.52,4.24,4.24,0,0,1-1.27-3.17V143a8.46,8.46,0,0,1,1-3.89,7.21,7.21,0,0,1,1.64-2,4.12,4.12,0,0,1,2.13-1,7.29,7.29,0,0,1,1.24-.12,3.08,3.08,0,0,1,2.16.69A2.36,2.36,0,0,1,380.21,138.55Z" transform="translate(-0.17 0.05)"/><path class="cls-6" d="M387.79,130.15q-0.09,1.18-.32,3.2T387,137.51q-0.12,1.15-.2,2.28t-0.09,2.16a17.49,17.49,0,0,0,.14,3.17q0.23,1.33.84,1.44a1.37,1.37,0,0,0,1.3-1,12.36,12.36,0,0,0,1.07-2.34q0.29-.84.49-1.59t0.32-1.1l0.52-.06a1.93,1.93,0,0,1,.52.06q-0.06.26-.17,0.72a10.94,10.94,0,0,1-.26,1.1q-0.32,1.1-.84,2.39a7.24,7.24,0,0,1-1.3,2.08,2.91,2.91,0,0,1-.84.63,1.65,1.65,0,0,1-.75.17l-0.23,0a3.31,3.31,0,0,1-2.1-1,5,5,0,0,1-1.15-2,10.43,10.43,0,0,1-.49-2.94v-1.12q0-1.1.06-2.22t0.2-2.19q0.11-1.12.2-2.1,0.2-1.87.26-3.26a2.7,2.7,0,0,0-.32-1.85,1.26,1.26,0,0,1,1.15-.75h0.29a2.06,2.06,0,0,1,1.33.46,1.78,1.78,0,0,1,.52.61A1.93,1.93,0,0,1,387.79,130.15Z" transform="translate(-0.17 0.05)"/><path class="cls-6" d="M409.68,133.5a1.93,1.93,0,0,1-1.87-.37,1.31,1.31,0,0,1,.06-1.64,2.34,2.34,0,0,0,1.41-.26,3.39,3.39,0,0,0,1-.92,4.19,4.19,0,0,0,.78-2,2.3,2.3,0,0,0-.46-1.79,1.65,1.65,0,0,0-.61-0.46,1.93,1.93,0,0,0-.86-0.17,4,4,0,0,0-2.77,1,8.08,8.08,0,0,0-2,2.71,14,14,0,0,0-.75,1.9q-0.29,1-.49,2.13a20,20,0,0,0-.35,2.65q-0.06,1.36,0,2.6a12.21,12.21,0,0,0,.84,4,2.52,2.52,0,0,0,1.85,1.82q1.24,0.15,2.39-1.5a14.22,14.22,0,0,0,1.9-3.78,20.45,20.45,0,0,0,.61-2.31,10.38,10.38,0,0,0,.23-2.08,1.2,1.2,0,0,1,1.53-.49,1.48,1.48,0,0,1,1.27,1.12,1.08,1.08,0,0,0-.14.69q-0.06.63-.06,1.7-0.06,2-.12,5-0.06,1.38-.14,2.77a12.84,12.84,0,0,0,1.7-.87,9,9,0,0,0,2.13-1.76,6.17,6.17,0,0,0,1.33-2.62,0.81,0.81,0,0,1,.49-0.12,1.91,1.91,0,0,1,.58.12,7,7,0,0,1-1.41,2.94,10.47,10.47,0,0,1-2.25,2.08,17.69,17.69,0,0,1-2.65,1.44q-0.09,1.1-.2,2.22a37.66,37.66,0,0,1-.84,4.76,11.06,11.06,0,0,1-1.53,3.6,4,4,0,0,1-1.18,1.15,2.64,2.64,0,0,1-1.47.43h0a2.68,2.68,0,0,1-1.93-.87,5.78,5.78,0,0,1-1.35-2.19,6.52,6.52,0,0,1-.35-1.5,6.27,6.27,0,0,1,0-1.59,6.59,6.59,0,0,1,.46-1.93,5.33,5.33,0,0,1,1.15-1.7,4.81,4.81,0,0,1,1.24-1,11,11,0,0,1,1.5-.78q0.92-.43,1.9-0.81v-0.75q0.06-2.16,0-3.69t0-1.67q-0.2.38-.78,1.59a7.1,7.1,0,0,1-1.56,2.13,4.2,4.2,0,0,1-1.15.78,2.77,2.77,0,0,1-1.38.23,6.19,6.19,0,0,1-2.22-.61,6.65,6.65,0,0,1-1.7-1.27,7.8,7.8,0,0,1-1.87-3.63,13.49,13.49,0,0,1-.32-2.91,15.17,15.17,0,0,1,.09-1.61,15,15,0,0,1,1.36-4.67,10.35,10.35,0,0,1,2.91-3.72,8.19,8.19,0,0,1,5.39-1.9h0.26a3.09,3.09,0,0,1,1.21.23,3.66,3.66,0,0,1,1,.61,4,4,0,0,1,1.3,2.6,4.7,4.7,0,0,1-.49,3,3.88,3.88,0,0,1-1,1.21A3.6,3.6,0,0,1,409.68,133.5ZM409,148.73q-0.78.35-1.44,0.72a5.33,5.33,0,0,0-1.07.81,4.49,4.49,0,0,0-1.12,1.76,5.07,5.07,0,0,0-.32,1.9,5.84,5.84,0,0,0,1,3.09,2.4,2.4,0,0,0,1.82,1.36q1,0,1.47-2.19a34,34,0,0,0,.75-5.08q0.09-1.24.14-2.48v-0.4Z" transform="translate(-0.17 0.05)"/><path class="cls-6" d="M421.1,136.56q-0.09,1-.26,2.08t-0.32,2.22a24.27,24.27,0,0,0-.2,3.78q0.06,1.64,1.1,1.85a1.31,1.31,0,0,0,1.3-.92,12.72,12.72,0,0,0,1-2.31q0.29-.84.49-1.56t0.29-1.1l0.52-.06a1.93,1.93,0,0,1,.52.06q-0.09.46-.37,1.64a20.74,20.74,0,0,1-.81,2.39q-0.29.64-.63,1.24a5,5,0,0,1-.72,1,2.64,2.64,0,0,1-.87.63,1.59,1.59,0,0,1-.72.17l-0.23,0a3.9,3.9,0,0,1-2.16-.78,3.49,3.49,0,0,1-1.07-1.56,5.15,5.15,0,0,1-.29-1.59v-0.4a10.26,10.26,0,0,1,.09-1.33,27.2,27.2,0,0,1,.43-3.06,3,3,0,0,0,0-1.93,2,2,0,0,1,1.47-.89,3.79,3.79,0,0,1,.61-0.06A0.78,0.78,0,0,1,421.1,136.56ZM418.62,132a1.36,1.36,0,0,0-.17-1,1.39,1.39,0,0,1-.2-0.81,3.54,3.54,0,0,1,0-.43,1.15,1.15,0,0,1,1-1,3.32,3.32,0,0,1,.78-0.12,1.33,1.33,0,0,1,.52.09,1.88,1.88,0,0,1,.84,1,2.23,2.23,0,0,1,.2.89,2,2,0,0,1-.06.49,1.56,1.56,0,0,1-1.38,1,5.72,5.72,0,0,1-.87.14A0.83,0.83,0,0,1,418.62,132Z" transform="translate(-0.17 0.05)"/><path class="cls-6" d="M424.15,130.07a2,2,0,0,1,.35-0.63,2,2,0,0,1,.52-0.37,1.79,1.79,0,0,1,.69-0.14,2.18,2.18,0,0,1,1.12.35,1.92,1.92,0,0,1,1,1.61,42.19,42.19,0,0,1-.09,6.34q-0.32,3.69-.66,7.47a6.92,6.92,0,0,0,2-.32,4.61,4.61,0,0,0,2.65-1.7,7.37,7.37,0,0,0,1-2,5,5,0,0,1,.55,0,2.38,2.38,0,0,1,.52.06,6.68,6.68,0,0,1-2.71,3.92,6,6,0,0,1-4.15,1.15v0.14a4.93,4.93,0,0,1,1.27,1.15,11.54,11.54,0,0,1,1.53,2.54,15.74,15.74,0,0,1,1.3,4.79,6.29,6.29,0,0,1-.69,4.12,3.25,3.25,0,0,1-1,1.07,3.47,3.47,0,0,1-1.61.46l-0.26,0a2.84,2.84,0,0,1-2.83-2.1,18.52,18.52,0,0,1-.89-5.71q0-1.87.09-4l0.14-2.42-0.58-.12a0.59,0.59,0,0,1-.46-0.55,0.33,0.33,0,0,1,0-.23,0.6,0.6,0,0,1,.55-0.58l0.55,0.12,0.06-.46q0.29-4.09.46-7.9A19.64,19.64,0,0,0,424.15,130.07Zm2.39,21.6a26.52,26.52,0,0,0,.09,5.25,4.38,4.38,0,0,0,.49,1.64,0.89,0.89,0,0,0,.92.52q0.69-.06,1-1.93a13,13,0,0,0-.06-4.21,14.53,14.53,0,0,0-.63-2.51,8.24,8.24,0,0,0-1.12-2.25,6.18,6.18,0,0,0-.4-0.52Q426.66,149.73,426.55,151.67Z" transform="translate(-0.17 0.05)"/><path class="cls-6" d="M430.38,133.44h-0.06c-0.15,0-.24-0.18-0.26-0.55v0a0.7,0.7,0,0,1,.23-0.66,14.27,14.27,0,0,1,2.11-.63l0.14,0q0-.69.06-1.3a2.8,2.8,0,0,0-.37-1.85,1.3,1.3,0,0,1,1.15-.75,1.63,1.63,0,0,1,.32,0,2.14,2.14,0,0,1,1.33.46,3.21,3.21,0,0,1,.52.61,2.46,2.46,0,0,1,.26.89q-0.09.49-.14,1.1a17.47,17.47,0,0,0,1.79-.61,2.65,2.65,0,0,0,1.07-.61,0.82,0.82,0,0,1,.92.81v0.12a1.38,1.38,0,0,1-.81,1.18,7.59,7.59,0,0,1-2,.49l-1.07.17a5.71,5.71,0,0,0,0,.58q-0.14,2-.17,4.27,0,1.18,0,2.34t0.12,2.22a19.32,19.32,0,0,0,.49,3.32q0.35,1.36,1,1.47a1.64,1.64,0,0,0,.87-0.06,2.3,2.3,0,0,0,.78-0.49,5.24,5.24,0,0,0,1.18-1.7q0.49-1.1.81-2l0.26-.92q0.11-.4.17-0.63a2.14,2.14,0,0,1,.52-0.06,1.08,1.08,0,0,1,.52.06q-0.09.43-.37,1.47a13.88,13.88,0,0,1-.81,2.19,10.33,10.33,0,0,1-.66,1.18,5.38,5.38,0,0,1-.81,1,3.92,3.92,0,0,1-1.21.84,2.67,2.67,0,0,1-1.1.23h-0.4a4,4,0,0,1-2.31-1,5.76,5.76,0,0,1-1.36-2.1,11.11,11.11,0,0,1-.66-3q-0.11-1.33-.12-2.71V138q0-1.15.12-2.28t0.14-2.13c0-.27,0-0.53,0-0.78l-0.89.2A3.44,3.44,0,0,0,430.38,133.44Z" transform="translate(-0.17 0.05)"/><path class="cls-6" d="M449.21,130.07a2,2,0,0,1,.35-0.63,2,2,0,0,1,.52-0.37,1.79,1.79,0,0,1,.69-0.14,2.18,2.18,0,0,1,1.12.35,1.92,1.92,0,0,1,1,1.61,42.19,42.19,0,0,1-.09,6.34q-0.32,3.69-.66,7.47a6.92,6.92,0,0,0,2-.32,4.61,4.61,0,0,0,2.65-1.7,7.37,7.37,0,0,0,1-2,5,5,0,0,1,.55,0,2.38,2.38,0,0,1,.52.06,6.68,6.68,0,0,1-2.71,3.92,6,6,0,0,1-4.15,1.15v0.14a4.93,4.93,0,0,1,1.27,1.15,11.54,11.54,0,0,1,1.53,2.54,15.74,15.74,0,0,1,1.3,4.79,6.29,6.29,0,0,1-.69,4.12,3.25,3.25,0,0,1-1,1.07,3.47,3.47,0,0,1-1.61.46l-0.26,0a2.84,2.84,0,0,1-2.83-2.1,18.52,18.52,0,0,1-.89-5.71q0-1.87.09-4l0.14-2.42-0.58-.12a0.59,0.59,0,0,1-.46-0.55,0.33,0.33,0,0,1,0-.23,0.6,0.6,0,0,1,.55-0.58l0.55,0.12,0.06-.46q0.29-4.09.46-7.9A19.64,19.64,0,0,0,449.21,130.07Zm2.39,21.6a26.52,26.52,0,0,0,.09,5.25,4.38,4.38,0,0,0,.49,1.64,0.89,0.89,0,0,0,.92.52q0.69-.06,1-1.93a13,13,0,0,0-.06-4.21,14.53,14.53,0,0,0-.63-2.51,8.24,8.24,0,0,0-1.12-2.25,6.18,6.18,0,0,0-.4-0.52Q451.72,149.73,451.61,151.67Z" transform="translate(-0.17 0.05)"/><path class="cls-6" d="M462.42,135.66a0.56,0.56,0,0,1,.58.49,1.19,1.19,0,0,1-.23.78,1.45,1.45,0,0,0-.87.2,2.18,2.18,0,0,0-.66.66,5.71,5.71,0,0,0-.81,2.08,10.89,10.89,0,0,0-.14,2.62,8.76,8.76,0,0,0,.63,3,1.79,1.79,0,0,0,1.62,1.27,1.63,1.63,0,0,0,1.15-1.21,16.8,16.8,0,0,0,.69-2.28,8.28,8.28,0,0,1-1.15-2.1,7.17,7.17,0,0,1-.55-2,3.73,3.73,0,0,1,.12-1.76,2,2,0,0,1,.52-0.78,1.94,1.94,0,0,1,.92-0.49,1.92,1.92,0,0,1,2.42,1,6.78,6.78,0,0,1,.52,3.4,11.47,11.47,0,0,1-.26,1.73,12.81,12.81,0,0,1-.49,1.59,1.44,1.44,0,0,0,.75.35A1.36,1.36,0,0,0,468,144a2.64,2.64,0,0,0,.69-0.55,4.67,4.67,0,0,0,.81-1.5q0.29-.89.43-1.41h1a17.73,17.73,0,0,1-.55,1.73,5.24,5.24,0,0,1-1.24,2,3.24,3.24,0,0,1-1,.72,2.61,2.61,0,0,1-1.3.2,2.13,2.13,0,0,1-1-.32,7.57,7.57,0,0,1-1.15,1.67,3.07,3.07,0,0,1-2.28,1.07h-0.09a5.17,5.17,0,0,1-2.34-.49,4.75,4.75,0,0,1-1.64-1.36,5.25,5.25,0,0,1-.72-1.38,7,7,0,0,1-.35-1.59q0-.37,0-0.78a8.57,8.57,0,0,1,.32-2.28,6.08,6.08,0,0,1,1.41-2.57,4.63,4.63,0,0,1,1.47-1.12,3.88,3.88,0,0,1,1.7-.37A0.33,0.33,0,0,1,462.42,135.66Zm2.28,3.63q-0.09-1.61-.75-1.44-0.37.09-.2,0.92a8.49,8.49,0,0,0,.58,1.82q0.14,0.38.32,0.72A12,12,0,0,0,464.7,139.3Z" transform="translate(-0.17 0.05)"/><path class="cls-6" d="M471.77,136.64a12.4,12.4,0,0,0,2.25-.23,3.91,3.91,0,0,1,1.9,0,0.71,0.71,0,0,1,.43.35,0.94,0.94,0,0,1,.09.63,19,19,0,0,0-.23,2.16q0,1.1,0,2.13a17.86,17.86,0,0,0,.37,3.35q0.32,1.38.75,1.44a1.37,1.37,0,0,0,1.12-1,17.2,17.2,0,0,0,.92-2.25q0.26-.84.46-1.56t0.26-1a3.65,3.65,0,0,1,.55-0.09,2.14,2.14,0,0,1,.52.06l-0.4,1.64a16.23,16.23,0,0,1-.81,2.42,9.56,9.56,0,0,1-.61,1.27,6.07,6.07,0,0,1-.72,1.07,3,3,0,0,1-.84.69,1.63,1.63,0,0,1-.78.2h-0.14a4.71,4.71,0,0,1-2.36-.81,2.72,2.72,0,0,1-1.24-1.7,11,11,0,0,1-.12-1.62,16.26,16.26,0,0,1,.09-1.67q0.11-1.5.29-2.68a2,2,0,0,0,0-1.33l-1-.2a7.12,7.12,0,0,0-.92-0.12l-0.29,1.3-0.35,1.7a1.37,1.37,0,0,1-.49,0l-0.55-.06q0.14-.69.38-1.76t0.26-1.38a2.51,2.51,0,0,1-1-.89,1.82,1.82,0,0,1-.37-1V135.6a2.74,2.74,0,0,1,.32-1.38,1.31,1.31,0,0,1,.69-0.63,1.06,1.06,0,0,0,.26,0,0.77,0.77,0,0,1,.35.09,0.88,0.88,0,0,1,.43.32,2.49,2.49,0,0,1,.52,1.38A5.36,5.36,0,0,1,471.77,136.64Z" transform="translate(-0.17 0.05)"/><path class="cls-6" d="M502.68,133.9a2.23,2.23,0,0,1-3.52-1.44,3.52,3.52,0,0,0,1.18-.52,4,4,0,0,0,.81-0.81,3.44,3.44,0,0,0,.4-1,3.33,3.33,0,0,0,0-1.15,3.54,3.54,0,0,0-.92-1.9,3.31,3.31,0,0,0-2-1.12,4.53,4.53,0,0,0-3.75.89,4.86,4.86,0,0,0-1.62,4.07,3,3,0,0,0,.4,1.56,4.78,4.78,0,0,0,1,1.33,14.25,14.25,0,0,0,3,2.16,22.22,22.22,0,0,1,3.26,2.34,9.42,9.42,0,0,1,2,2.48,5.76,5.76,0,0,1,.72,2.94,2.87,2.87,0,0,1,0,.4,7.06,7.06,0,0,1-.55,2.62,7,7,0,0,1-1.3,1.93,6.88,6.88,0,0,1-3.66,1.85,11.58,11.58,0,0,1-4.3.06,6.1,6.1,0,0,1-2.77-1.27,7.48,7.48,0,0,1-2-2.31,7,7,0,0,1-.92-3.46q0-.37,0-0.75a4.27,4.27,0,0,1,2.31-3.4,1.34,1.34,0,0,1,1.67,1,3.26,3.26,0,0,1,0,2.34,1.08,1.08,0,0,0-1.61.89,4.8,4.8,0,0,0,.26,2.94,5.22,5.22,0,0,0,.52,1,4.14,4.14,0,0,0,.69.92,4.61,4.61,0,0,0,.92.72,3.73,3.73,0,0,0,1.12.4,5.32,5.32,0,0,0,3-.29,5.42,5.42,0,0,0,2.39-1.87,6.63,6.63,0,0,0,.81-1.56,7.6,7.6,0,0,0,.35-1.9,3.61,3.61,0,0,0-.72-2.39,11.92,11.92,0,0,0-2-1.93q-0.78-.58-1.64-1.18t-1.7-1.21a14.3,14.3,0,0,1-2.68-2.71,5.81,5.81,0,0,1-1-3.78,5.38,5.38,0,0,1,1.24-3.46,6.67,6.67,0,0,1,2.88-2,7.6,7.6,0,0,1,1.9-.4l0.58,0a6.77,6.77,0,0,1,1.38.14,5.36,5.36,0,0,1,3.35,1.85,5.82,5.82,0,0,1,1.38,3.26A6,6,0,0,1,502.68,133.9Z" transform="translate(-0.17 0.05)"/><path class="cls-6" d="M510.47,135.66a0.56,0.56,0,0,1,.58.49,1.19,1.19,0,0,1-.23.78,1.45,1.45,0,0,0-.87.2,2.18,2.18,0,0,0-.66.66,5.71,5.71,0,0,0-.81,2.08,10.89,10.89,0,0,0-.14,2.62,8.76,8.76,0,0,0,.63,3,1.79,1.79,0,0,0,1.62,1.27,1.63,1.63,0,0,0,1.15-1.21,16.8,16.8,0,0,0,.69-2.28,8.28,8.28,0,0,1-1.15-2.1,7.17,7.17,0,0,1-.55-2,3.73,3.73,0,0,1,.12-1.76,2,2,0,0,1,.52-0.78,1.94,1.94,0,0,1,.92-0.49,1.92,1.92,0,0,1,2.42,1,6.78,6.78,0,0,1,.52,3.4,11.47,11.47,0,0,1-.26,1.73,12.81,12.81,0,0,1-.49,1.59,1.44,1.44,0,0,0,.75.35,1.36,1.36,0,0,0,.84-0.14,2.64,2.64,0,0,0,.69-0.55,4.67,4.67,0,0,0,.81-1.5q0.29-.89.43-1.41h1a17.73,17.73,0,0,1-.55,1.73,5.24,5.24,0,0,1-1.24,2,3.24,3.24,0,0,1-1,.72,2.61,2.61,0,0,1-1.3.2,2.13,2.13,0,0,1-1-.32,7.57,7.57,0,0,1-1.15,1.67,3.07,3.07,0,0,1-2.28,1.07H510.5a5.17,5.17,0,0,1-2.34-.49,4.75,4.75,0,0,1-1.64-1.36,5.25,5.25,0,0,1-.72-1.38,7,7,0,0,1-.35-1.59q0-.37,0-0.78a8.57,8.57,0,0,1,.32-2.28,6.08,6.08,0,0,1,1.41-2.57,4.63,4.63,0,0,1,1.47-1.12,3.88,3.88,0,0,1,1.7-.37A0.33,0.33,0,0,1,510.47,135.66Zm2.28,3.63q-0.09-1.61-.75-1.44-0.37.09-.2,0.92a8.49,8.49,0,0,0,.58,1.82q0.14,0.38.32,0.72A12,12,0,0,0,512.75,139.3Z" transform="translate(-0.17 0.05)"/><path class="cls-6" d="M520.21,139.87q0.17-.4.58-1.24a5.73,5.73,0,0,1,1.07-1.56,4.33,4.33,0,0,1,.78-0.66,2.34,2.34,0,0,1,1-.32,1.74,1.74,0,0,1,1,.17,2.71,2.71,0,0,1,.72.61,4.41,4.41,0,0,1,.75,1.73,10.74,10.74,0,0,1,.26,1.44,11.88,11.88,0,0,1,.66-1.53,6.22,6.22,0,0,1,1.47-2,3,3,0,0,1,.84-0.55,2,2,0,0,1,.89-0.2h0.06a1.41,1.41,0,0,1,1.07.46,3.74,3.74,0,0,1,.72,1.18,10.41,10.41,0,0,1,.4,1.76q0.17,1,.26,2,0.14,1.9.26,3.52t0.66,1.67a1.38,1.38,0,0,0,1.36-.92,13.19,13.19,0,0,0,1.07-2.36q0.29-.84.49-1.59t0.26-1.07l0.55-.06a0.52,0.52,0,0,1,.49.12q-0.15.61-.46,1.7a17.68,17.68,0,0,1-.81,2.25q-0.29.6-.61,1.15a6,6,0,0,1-.75,1,3.67,3.67,0,0,1-1.1.81,2.28,2.28,0,0,1-1.36.17,2.52,2.52,0,0,1-1.33-.63,3.87,3.87,0,0,1-.78-1.24,7.11,7.11,0,0,1-.43-1.76q-0.12-1-.14-1.93-0.06-1.82-.09-3.29t-0.75-1.5a1.35,1.35,0,0,0-1,.78,10.38,10.38,0,0,0-1,1.85,9.06,9.06,0,0,0-.46,1.33,5.07,5.07,0,0,0-.23,1.1q-0.09,1-.09,1.76t0,1.3a0.89,0.89,0,0,1-1.1.38,1.07,1.07,0,0,1-1.07-.78,16.29,16.29,0,0,0,.09-1.73q0-.89-0.09-1.79a13.84,13.84,0,0,0-.52-2.85q-0.35-1.21-.89-1.15a1.9,1.9,0,0,0-1,.78,10.88,10.88,0,0,0-1,1.61q-0.26.61-.43,1.15a4.64,4.64,0,0,0-.2,1,27.29,27.29,0,0,0,.06,3.06,14.06,14.06,0,0,1,.06,2.08,3.28,3.28,0,0,1-1.33.61,1.23,1.23,0,0,1-.43.09,0.94,0.94,0,0,1-.87-0.49q0-.52,0-2.25t0-3.49a23.05,23.05,0,0,0-.23-2.57,1.85,1.85,0,0,0-.55-1.33v-0.14a1.69,1.69,0,0,1,1-1.38q1.1-.69,1.41.09a10.37,10.37,0,0,1,.63,2.16Q520.18,139.5,520.21,139.87Z" transform="translate(-0.17 0.05)"/><path class="cls-6" d="M542.94,137.71a2.67,2.67,0,0,1-.09,1.3,3.56,3.56,0,0,1-.58,1.18,6.24,6.24,0,0,1-2.6,2,7.19,7.19,0,0,1-1,.4q0.09,0.23.17,0.52a7.28,7.28,0,0,0,1,2.1,3.8,3.8,0,0,0,.72.84,1.56,1.56,0,0,0,.89.35,2.59,2.59,0,0,0,1.38-.26,3.68,3.68,0,0,0,1.15-.84,7.18,7.18,0,0,0,1.47-2.45,16.61,16.61,0,0,0,.81-2.48,1.33,1.33,0,0,1,.49,0,4.26,4.26,0,0,1,.52,0,16.52,16.52,0,0,1-.87,2.85,7.85,7.85,0,0,1-1.9,3,5.32,5.32,0,0,1-1.53,1.07,4,4,0,0,1-1.67.35l-0.29,0a4.77,4.77,0,0,1-3.29-1.33,6.31,6.31,0,0,1-1.59-2.77,6.78,6.78,0,0,1-.26-1.64v-0.26a6.46,6.46,0,0,1,.12-1.27,5.2,5.2,0,0,1,1.64-3.2,6.47,6.47,0,0,1,1.85-1.07,2.76,2.76,0,0,1,1-.12,3.47,3.47,0,0,1,1.24.23A1.88,1.88,0,0,1,542.94,137.71Zm-4,3.72a4.18,4.18,0,0,0,1.5-1.56,5,5,0,0,0,.69-1.53,2.65,2.65,0,0,0-.12-1.47q-0.23-.61-1.12.06a2.32,2.32,0,0,0-.61.69,3.56,3.56,0,0,0-.4.87,7.22,7.22,0,0,0-.35,1.7c0,0.56-.06.9-0.06,1a3.44,3.44,0,0,0,0,.43A3.2,3.2,0,0,0,538.9,141.43Z" transform="translate(-0.17 0.05)"/><path class="cls-6" d="M550.84,135.66a0.56,0.56,0,0,1,.58.49,1.19,1.19,0,0,1-.23.78,1.45,1.45,0,0,0-.87.2,2.18,2.18,0,0,0-.66.66,5.71,5.71,0,0,0-.81,2.08,10.89,10.89,0,0,0-.14,2.62,8.76,8.76,0,0,0,.63,3,1.79,1.79,0,0,0,1.62,1.27,1.63,1.63,0,0,0,1.15-1.21,16.8,16.8,0,0,0,.69-2.28,8.28,8.28,0,0,1-1.15-2.1,7.17,7.17,0,0,1-.55-2,3.73,3.73,0,0,1,.12-1.76,2,2,0,0,1,.52-0.78,1.94,1.94,0,0,1,.92-0.49,1.92,1.92,0,0,1,2.42,1,6.78,6.78,0,0,1,.52,3.4,11.47,11.47,0,0,1-.26,1.73,12.81,12.81,0,0,1-.49,1.59,1.44,1.44,0,0,0,.75.35,1.36,1.36,0,0,0,.84-0.14,2.64,2.64,0,0,0,.69-0.55,4.67,4.67,0,0,0,.81-1.5q0.29-.89.43-1.41h1a17.73,17.73,0,0,1-.55,1.73,5.24,5.24,0,0,1-1.24,2,3.24,3.24,0,0,1-1,.72,2.61,2.61,0,0,1-1.3.2,2.13,2.13,0,0,1-1-.32,7.57,7.57,0,0,1-1.15,1.67,3.07,3.07,0,0,1-2.28,1.07h-0.09a5.17,5.17,0,0,1-2.34-.49,4.75,4.75,0,0,1-1.64-1.36,5.25,5.25,0,0,1-.72-1.38,7,7,0,0,1-.35-1.59q0-.37,0-0.78a8.57,8.57,0,0,1,.32-2.28,6.08,6.08,0,0,1,1.41-2.57A4.63,4.63,0,0,1,549,136a3.88,3.88,0,0,1,1.7-.37A0.33,0.33,0,0,1,550.84,135.66Zm2.28,3.63q-0.09-1.61-.75-1.44-0.37.09-.2,0.92a8.49,8.49,0,0,0,.58,1.82q0.14,0.38.32,0.72A12,12,0,0,0,553.12,139.3Z" transform="translate(-0.17 0.05)"/><path class="cls-6" d="M559.92,136.18a3.56,3.56,0,0,1,.2.63q0.09,0.38.14,0.81,0.11,0.78.17,1.59t0.09,1a14.85,14.85,0,0,1,.66-1.53,6.23,6.23,0,0,1,1.47-2,3,3,0,0,1,.84-0.55,2,2,0,0,1,.89-0.2h0.06a1.4,1.4,0,0,1,1.07.46,3.38,3.38,0,0,1,.69,1.18,8.76,8.76,0,0,1,.43,1.76,17,17,0,0,1,.23,2q0.17,1.9.29,3.52t0.66,1.67a1.38,1.38,0,0,0,1.36-1,15.32,15.32,0,0,0,1.07-2.34q0.29-.84.49-1.59t0.26-1.07a1.21,1.21,0,0,1,.55-0.12,0.75,0.75,0,0,1,.49.14l-0.2.84q-0.11.49-.29,1.07a19.35,19.35,0,0,1-.84,2.25,6.72,6.72,0,0,1-1.3,2,3.67,3.67,0,0,1-1.1.81,2.29,2.29,0,0,1-1.36.17,2.53,2.53,0,0,1-1.33-.63,3.81,3.81,0,0,1-.78-1.27,6.69,6.69,0,0,1-.43-1.73q-0.12-1-.14-1.93-0.06-1.82-.12-3.29t-0.72-1.5a1.42,1.42,0,0,0-1.07.78,10.9,10.9,0,0,0-1,1.82,10.32,10.32,0,0,0-.46,1.36,3.56,3.56,0,0,0-.14,1.1q0,1,0,2.34t-0.12,2.42a1.19,1.19,0,0,1-1.15.72l-0.17,0a1,1,0,0,1-1-.52,16.8,16.8,0,0,0,.17-1.82q0.06-1.15,0-2.42,0-1.9-.2-3.66a7.52,7.52,0,0,0-.49-2.39,1.26,1.26,0,0,1,.89-1A1.11,1.11,0,0,1,559.92,136.18Z" transform="translate(-0.17 0.05)"/><path class="cls-6" d="M577.75,137.71a2.67,2.67,0,0,1-.09,1.3,3.56,3.56,0,0,1-.58,1.18,6.24,6.24,0,0,1-2.6,2,7.19,7.19,0,0,1-1,.4q0.09,0.23.17,0.52a7.28,7.28,0,0,0,1,2.1,3.8,3.8,0,0,0,.72.84,1.56,1.56,0,0,0,.89.35,2.59,2.59,0,0,0,1.38-.26,3.68,3.68,0,0,0,1.15-.84,7.18,7.18,0,0,0,1.47-2.45,16.61,16.61,0,0,0,.81-2.48,1.33,1.33,0,0,1,.49,0,4.26,4.26,0,0,1,.52,0,16.52,16.52,0,0,1-.87,2.85,7.85,7.85,0,0,1-1.9,3,5.32,5.32,0,0,1-1.53,1.07,4,4,0,0,1-1.67.35l-0.29,0a4.77,4.77,0,0,1-3.29-1.33,6.31,6.31,0,0,1-1.59-2.77,6.78,6.78,0,0,1-.26-1.64v-0.26a6.46,6.46,0,0,1,.12-1.27,5.2,5.2,0,0,1,1.64-3.2,6.47,6.47,0,0,1,1.85-1.07,2.76,2.76,0,0,1,1-.12,3.47,3.47,0,0,1,1.24.23A1.88,1.88,0,0,1,577.75,137.71Zm-4,3.72a4.18,4.18,0,0,0,1.5-1.56,5,5,0,0,0,.69-1.53,2.65,2.65,0,0,0-.12-1.47q-0.23-.61-1.12.06a2.32,2.32,0,0,0-.61.69,3.56,3.56,0,0,0-.4.87,7.22,7.22,0,0,0-.35,1.7c0,0.56-.06.9-0.06,1a3.44,3.44,0,0,0,0,.43A3.2,3.2,0,0,0,573.71,141.43Z" transform="translate(-0.17 0.05)"/><path class="cls-7" d="M437.63,173.32H439v0.28c0,1.07,0,2.14,0,3.2a2.29,2.29,0,0,0,.08.38,0.22,0.22,0,0,0,.29.17,0.39,0.39,0,0,0,.22-0.28c0-.44,0-0.88,0-1.36,0.45,0,.89,0,1.33,0a0.4,0.4,0,0,0,.3-0.16,0.36,0.36,0,0,0,0-.34,1,1,0,0,0-.48-0.14c-0.49,0-1,0-1.48,0v-1.3c0.32,0,.64,0,1,0a10.72,10.72,0,0,1,1.29.14,1.32,1.32,0,0,1,.88.75,1.29,1.29,0,0,0,.85.74,1.74,1.74,0,0,0-.92.91,1.6,1.6,0,0,1-1.32.78,1.75,1.75,0,0,1-.93,1.45,5.11,5.11,0,0,0-.78.69,1.88,1.88,0,0,0-.93-0.9,1.44,1.44,0,0,1-.62-1.12c0-1.26,0-2.51-.05-3.77C437.62,173.4,437.62,173.37,437.63,173.32Z" transform="translate(-0.17 0.05)"/><path class="cls-7" d="M435.67,175.27H437c0,0.71,0,1.41,0,2.11a1.45,1.45,0,0,1-.68,1,1.8,1.8,0,0,0-.92.9,1.12,1.12,0,0,0-.63-0.73,1.77,1.77,0,0,1-1-1.5,1.69,1.69,0,0,1-1.46-1,1.34,1.34,0,0,0-.75-0.66,2.1,2.1,0,0,0,1-1.07,1.32,1.32,0,0,1,1-.52c1.3,0,2.59,0,3.91,0v1.25h-3.34c-0.12,0-.24,0-0.36,0a0.25,0.25,0,0,0-.27.31,0.48,0.48,0,0,0,.34.28c0.42,0,.85,0,1.3,0,0,0.44,0,.86,0,1.29a0.29,0.29,0,0,0,.41.31,0.24,0.24,0,0,0,.2-0.27C435.66,176.45,435.67,175.87,435.67,175.27Z" transform="translate(-0.17 0.05)"/><path class="cls-7" d="M437.23,173.1v-1.3h3.68a0.28,0.28,0,0,0,.34-0.26,0.34,0.34,0,0,0-.35-0.35h-1.28c0-.43,0-0.84,0-1.25a0.42,0.42,0,0,0-.18-0.3,0.34,0.34,0,0,0-.33,0,0.7,0.7,0,0,0-.12.4c0,0.42,0,.83,0,1.25v0.26h-1.35c0-.23,0-0.47,0-0.71a5.08,5.08,0,0,1,.13-1.55,1.54,1.54,0,0,1,.73-0.88,1.67,1.67,0,0,0,.83-0.9,1.71,1.71,0,0,0,.93,1,1.63,1.63,0,0,1,.7,1.3,1.5,1.5,0,0,1,1,.41,3.85,3.85,0,0,1,.47.61,1.29,1.29,0,0,0,.69.62v0a1.89,1.89,0,0,0-.92.94,1.4,1.4,0,0,1-1.2.64h-3.77Z" transform="translate(-0.17 0.05)"/><path class="cls-7" d="M435.06,171.2h-1.21c-0.29,0-.41.11-0.4,0.32a0.25,0.25,0,0,0,.29.28c0.56,0,1.12,0,1.69,0v1.3c-0.57,0-1.14,0-1.71,0a1.38,1.38,0,0,1-1.1-.46,3.25,3.25,0,0,1-.28-0.37,1.62,1.62,0,0,0-.81-0.77,2.14,2.14,0,0,0,1-1,1.53,1.53,0,0,1,1.14-.63,6.89,6.89,0,0,1,.47-1,2.11,2.11,0,0,1,.59-0.49,1.51,1.51,0,0,0,.68-0.78c0.11,0.61.72,0.71,1.06,1.07a1.55,1.55,0,0,1,.5,1.07c0,1.18,0,2.35,0,3.53v0.28h-1.3v-0.26c0-1.12,0-2.23,0-3.35a0.3,0.3,0,0,0-.28-0.36,0.35,0.35,0,0,0-.33.38C435.06,170.35,435.06,170.76,435.06,171.2Z" transform="translate(-0.17 0.05)"/><path class="cls-7" d="M422.53,168l2.67,2.74-3,3-1.06-1.13,1.94-1.94-0.51-.46-0.53.52,0.27,0.26-1.11,1.12L420,170.74Z" transform="translate(-0.17 0.05)"/><path class="cls-7" d="M425.81,171.35l2.66,2.66-2.61,2.67-3-3,1.07-1.07,1.92,1.92,0.49-.56-0.54-.46-0.34.27-1-1.06Z" transform="translate(-0.17 0.05)"/><path class="cls-7" d="M422,177.2l0.51,0.54,0.51-.58-0.24-.25,1-1,1.34,1.34-2.62,2.62-2.67-2.67,3-3,1.13,1.21Z" transform="translate(-0.17 0.05)"/><path class="cls-7" d="M418.82,174l0.54,0.53,0.22-.29,1.06,1.06-1.33,1.32L416.69,174l2.66-2.65,3,3-1.06,1.06-1.92-1.92Z" transform="translate(-0.17 0.05)"/><path class="cls-7" d="M399.6,169.55c-0.27-.24-0.54-0.5-0.84-0.71a1.41,1.41,0,0,0-.49-0.12c0.18,0.39.37,0.75,0.51,1.12a3.71,3.71,0,0,1,.27,1.61,0.5,0.5,0,0,1-.09.25,4.54,4.54,0,0,0-.81,2.22,3.82,3.82,0,0,1-.69-2,3.92,3.92,0,0,0-.81-2.49,4.74,4.74,0,0,0-.72-0.63,2,2,0,0,0-.35-0.18,3.26,3.26,0,0,1,2-1.44,2.27,2.27,0,0,1,1.56.07,1,1,0,0,0,1-.1,4.29,4.29,0,0,1,2.19-.46,4.78,4.78,0,0,1,1.79.47l0.25,0.11c-0.17.15-.35,0.28-0.5,0.44a6.59,6.59,0,0,0-.59.7,0.2,0.2,0,0,1-.28.1,3,3,0,0,0-2.79.46A5.32,5.32,0,0,0,399.6,169.55Z" transform="translate(-0.17 0.05)"/><path class="cls-7" d="M413.88,168.55a10.8,10.8,0,0,0-1,.77,3.19,3.19,0,0,0-.9,2.14,5,5,0,0,1-1.34,3.24,4.66,4.66,0,0,1-2.63,1.38,1.15,1.15,0,0,1-.2,0,4,4,0,0,0,.27-1.58,0.36,0.36,0,0,1,.21-0.21,3.13,3.13,0,0,0,1.75-1.58,4.14,4.14,0,0,0,.32-1.32,4.85,4.85,0,0,1,.69-2.47,0.25,0.25,0,0,0,0-.18,3.1,3.1,0,0,0-.67.26,3.46,3.46,0,0,0-.5.52,1,1,0,0,1-.14.1,0.51,0.51,0,0,1-.08-0.16,6.67,6.67,0,0,0-.09-0.88c-0.13-.5-0.31-1-0.46-1.5a3.41,3.41,0,0,1,.43.21,0.5,0.5,0,0,0,.5,0,2.94,2.94,0,0,1,2.91.38A7.63,7.63,0,0,1,413.88,168.55Z" transform="translate(-0.17 0.05)"/><path class="cls-7" d="M409.36,170.39c-0.47-.23-0.93-0.47-1.4-0.68a0.37,0.37,0,0,1-.19-0.39,2.69,2.69,0,0,0-.61-1.65,3.8,3.8,0,0,0-.64-0.61,7.53,7.53,0,0,1-1.77-1.4c-0.27.21-.52,0.4-0.75,0.61a1.08,1.08,0,0,1-1,.21,12.26,12.26,0,0,0-1.44-.06h-0.37l0-.06c0.34-.28.66-0.57,1-0.84,0.72-.56,1.45-1.1,2.17-1.66a2.91,2.91,0,0,0,.36-0.42,1.51,1.51,0,0,1,.18.16,7.58,7.58,0,0,0,1.78,1.46,7.53,7.53,0,0,1,2.13,2.07,4.21,4.21,0,0,1,.64,1.86A5.27,5.27,0,0,1,409.36,170.39Z" transform="translate(-0.17 0.05)"/><path class="cls-7" d="M408.34,172.59a6.36,6.36,0,0,1-.47.46,0.45,0.45,0,0,0-.15.45,12.67,12.67,0,0,1,.09,1.48,3.86,3.86,0,0,1-.61,1.89,5.27,5.27,0,0,1-2,1.85,0.91,0.91,0,0,1-.94,0,5.13,5.13,0,0,1-1.86-1.62,5.79,5.79,0,0,1-.34-0.6l1.62-.31a0.27,0.27,0,0,1,.19.09l0.67,0.66a0.25,0.25,0,0,0,.35,0,3.16,3.16,0,0,0,1.26-2.94,2.52,2.52,0,0,0-.68-1.51l0.89-.42a0.51,0.51,0,0,0,.2-0.15,0.47,0.47,0,0,1,.64-0.14A2.77,2.77,0,0,1,408.34,172.59Z" transform="translate(-0.17 0.05)"/><path class="cls-7" d="M399.85,171c0.27,0.48.54,1,.79,1.43a0.26,0.26,0,0,1,0,.23,2.89,2.89,0,0,0-.55,1.89,3.11,3.11,0,0,0,.83,2,2.87,2.87,0,0,0,1.27.76,0.46,0.46,0,0,1,.22.14,4.69,4.69,0,0,0,1.85,1.44l0.06,0c-1.41.56-3.65-.2-4.88-1.66A4.55,4.55,0,0,1,399.85,171Z" transform="translate(-0.17 0.05)"/><path class="cls-7" d="M405.23,171.61c-0.06-.36-0.11-0.72-0.17-1.07a0.36,0.36,0,0,0-.05-0.16,0.43,0.43,0,0,1,0-.6,2.86,2.86,0,0,1,1.1-.9l0.4,0.84a5.23,5.23,0,0,1,1.95.56,4.08,4.08,0,0,1,1.5,1.29,0.86,0.86,0,0,1,0,.61,3.15,3.15,0,0,1-.74,1.25,3.16,3.16,0,0,0-1.66-1.74A2.85,2.85,0,0,0,405.23,171.61Z" transform="translate(-0.17 0.05)"/><path class="cls-7" d="M401.73,168.7a3.11,3.11,0,0,0,2.22,3.8,2.24,2.24,0,0,0-.25.36,5.78,5.78,0,0,0-.3.8,0.58,0.58,0,0,1-.43.42,2.42,2.42,0,0,1-1.36,0,1.92,1.92,0,0,1,.06-0.54,0.45,0.45,0,0,0-.16-0.56,4.47,4.47,0,0,1-1.36-2.21,4.92,4.92,0,0,1-.13-1.09,0.65,0.65,0,0,1,.29-0.4A2.61,2.61,0,0,1,401.73,168.7Z" transform="translate(-0.17 0.05)"/><path class="cls-7" d="M405.62,175.86c-0.31-.15-0.54-0.28-0.78-0.38a0.31,0.31,0,0,0-.25,0,4.79,4.79,0,0,1-2.63.65,7.1,7.1,0,0,1-1.13-.2,0.21,0.21,0,0,1-.1-0.09,2,2,0,0,1-.38-1.07c0-.26,0-0.52,0-0.81a3.09,3.09,0,0,0,4.36-.91,3.48,3.48,0,0,0,.25.32,3.07,3.07,0,0,0,.52.49,0.56,0.56,0,0,1,.38.77C405.8,175,405.7,175.42,405.62,175.86Z" transform="translate(-0.17 0.05)"/><path class="cls-7" d="M407.19,168.3a3.14,3.14,0,0,0-3,3.34,2.26,2.26,0,0,0-1.36-.21,0.31,0.31,0,0,1-.3-0.16,2.43,2.43,0,0,1-.57-1.41,2.36,2.36,0,0,1,.55-0.08,0.43,0.43,0,0,0,.49-0.31,5.22,5.22,0,0,1,1.08-1.57,3.43,3.43,0,0,1,1.5-.9,0.86,0.86,0,0,1,.61.2A2.79,2.79,0,0,1,407.19,168.3Z" transform="translate(-0.17 0.05)"/><path class="cls-7" d="M411,174.8a4.31,4.31,0,0,1-1.45,3,4.5,4.5,0,0,1-4.3,1.24c0.39-.28.77-0.53,1.14-0.81a4,4,0,0,0,.54-0.54,1.36,1.36,0,0,1,.6-0.42,2.38,2.38,0,0,0,1.16-.88,0.75,0.75,0,0,1,.25-0.25A5.49,5.49,0,0,0,411,174.8Z" transform="translate(-0.17 0.05)"/><path class="cls-7" d="M448.76,177.33l1.36-1.36,1,1.05-0.26.28,0.54,0.54,0.43-.49L450,175.46l1.11-1.1,2.92,2.92-2.64,2.64Z" transform="translate(-0.17 0.05)"/><path class="cls-7" d="M459.12,172.26l-1-1,0.3-.31-0.51-.49-0.48.48,1.91,1.9-1.07,1.12-3-2.94,2.66-2.66,2.59,2.6Z" transform="translate(-0.17 0.05)"/><path class="cls-7" d="M452.62,172.24l-1-1,0.28-.3-0.51-.5-0.5.51,1.92,1.92-1.06,1.11-3-2.95,2.67-2.67,2.59,2.6Z" transform="translate(-0.17 0.05)"/><path class="cls-7" d="M457.87,180l-2.6-2.6,1.34-1.34,1.09,1-0.36.3,0.56,0.47,0.43-.45-1.95-1.94,1.25-1,2.8,3Z" transform="translate(-0.17 0.05)"/><path class="cls-7" d="M461,176.76l-1.29-1.36,1.06-1.06,0.24,0.28,0.52-.51-0.48-.56-1.93,1.94-1.06-1,3-3,2.62,2.62Z" transform="translate(-0.17 0.05)"/><path class="cls-7" d="M448.16,176.67l-2.61-2.61,2.61-2.61,1.39,1.28-1.11,1.12-0.25-.28-0.49.53,0.5,0.51,1.87-1.88,1,1Z" transform="translate(-0.17 0.05)"/><path class="cls-7" d="M454.66,171.43l1.4,1.4L455,173.9l-0.37-.35-1.89,2-1.07-1.07Z" transform="translate(-0.17 0.05)"/><path class="cls-7" d="M454.68,176.81l-1.42-1.42,1.05-1.05,0.32,0.37,1.92-2,1.08,1.09Z" transform="translate(-0.17 0.05)"/><path class="cls-7" d="M350.29,177.33l1.36-1.36,1,1.05-0.27.28,0.54,0.54,0.43-.49-1.89-1.89,1.11-1.1,2.92,2.92-2.64,2.64Z" transform="translate(-0.17 0.05)"/><path class="cls-7" d="M360.66,172.26l-1-1,0.3-.31-0.51-.49-0.48.48,1.91,1.9-1.07,1.12-3-2.94,2.66-2.66,2.59,2.6Z" transform="translate(-0.17 0.05)"/><path class="cls-7" d="M354.16,172.24l-1-1,0.28-.3-0.51-.5-0.5.51,1.92,1.92-1.06,1.11-3-2.95,2.67-2.67,2.59,2.6Z" transform="translate(-0.17 0.05)"/><path class="cls-7" d="M359.4,180l-2.6-2.6,1.34-1.34,1.09,1-0.36.3,0.56,0.47,0.43-.45-1.95-1.94,1.25-1,2.8,3Z" transform="translate(-0.17 0.05)"/><path class="cls-7" d="M362.58,176.76l-1.29-1.36,1.06-1.06,0.24,0.28,0.52-.51-0.48-.56-1.93,1.94-1.06-1,3-3,2.62,2.62Z" transform="translate(-0.17 0.05)"/><path class="cls-7" d="M349.69,176.67l-2.61-2.61,2.61-2.61,1.39,1.28L350,173.86l-0.25-.28-0.49.53,0.5,0.51,1.87-1.88,1,1Z" transform="translate(-0.17 0.05)"/><path class="cls-7" d="M356.19,171.43l1.4,1.4-1.07,1.06-0.37-.35-1.89,2-1.07-1.07Z" transform="translate(-0.17 0.05)"/><path class="cls-7" d="M356.22,176.81l-1.42-1.42,1.05-1.05,0.32,0.37,1.92-2,1.08,1.09Z" transform="translate(-0.17 0.05)"/><path class="cls-7" d="M389,169.75l-0.42-.42c-0.45.34-.46,0.36-0.2,0.65l-0.81,1-1.23-1.23,2.19-2.25,2.26,2.26-2.52,2.52-0.88-.94Z" transform="translate(-0.17 0.05)"/><path class="cls-7" d="M388.86,175.28l0.89,1-1.58,1.65,0.37,0.44,0.45-.5-0.21-.22,0.87-.87,1.17,1.18-2.36,2.15-2.13-2.2Z" transform="translate(-0.17 0.05)"/><path class="cls-7" d="M385.93,170.18l2.47,2.55-0.92.91-1.59-1.6-0.47.47,0.28,0.24-0.88.87-1.16-1.16Z" transform="translate(-0.17 0.05)"/><path class="cls-7" d="M388.76,174.89l0.89-.87,1.59,1.6,0.52-.44c-0.29-.32-0.29-0.32,0-0.62l0.56-.57,1.19,1.19-2.23,2.23Z" transform="translate(-0.17 0.05)"/><path class="cls-7" d="M393.54,172.47L391.05,175l-1-.95,1.72-1.5-0.56-.44-0.22.2-0.91-.92,1.15-1.14Z" transform="translate(-0.17 0.05)"/><path class="cls-7" d="M386.17,172.65l0.88,0.88-1.62,1.68,0.46,0.42,0.24-.22,0.87,0.89-1.12,1.11-2.26-2.26Z" transform="translate(-0.17 0.05)"/><path class="cls-7" d="M387.49,176.29l-1.39-1.39,0.86-.85,1.38,1.39Z" transform="translate(-0.17 0.05)"/><path class="cls-7" d="M388.79,172.2l0.87-.87,1.41,1.41-0.9.9Z" transform="translate(-0.17 0.05)"/><path class="cls-7" d="M388.3,175l-0.85-.86,1.41-1.41,0.84,0.87Z" transform="translate(-0.17 0.05)"/><path class="cls-7" d="M374.66,176.56c0.39,0,.79,0,1.18,0a0.37,0.37,0,0,1,.26.15,0.37,0.37,0,0,0,.44.18v-2.28h1.28v4.17a0.33,0.33,0,0,1-.09-0.07,0.89,0.89,0,0,0-.91-0.46,2.16,2.16,0,0,1-1.58-.54A1.76,1.76,0,0,1,374.66,176.56Z" transform="translate(-0.17 0.05)"/><path class="cls-7" d="M370.84,176.57h1.28v0.35a0.57,0.57,0,0,0,.65-0.64c0-.55,0-1.1,0-1.66H374c0,0.76,0,1.52,0,2.27a1.39,1.39,0,0,1-.6.9,2,2,0,0,1-1.41.46,1,1,0,0,0-1,.51,0.18,0.18,0,0,1-.05.05h-0.06v-2.26Z" transform="translate(-0.17 0.05)"/><path class="cls-7" d="M372.13,171h-1.29v-4.15a1.94,1.94,0,0,1,.18.21,0.85,0.85,0,0,0,.77.4,2.77,2.77,0,0,1,1.11.18,1.8,1.8,0,0,1,1.14,1.47H372.8a0.26,0.26,0,0,1-.12-0.06l-0.54-.36V171Z" transform="translate(-0.17 0.05)"/><path class="cls-7" d="M380.33,176.35h-2.28v-1.23l0.36,0a0.58,0.58,0,0,0-.59-0.64H377c-0.15,0-.3,0-0.45,0s-0.27,0-.43-0.07V173.2h1.79a1.52,1.52,0,0,1,1.06.39,2,2,0,0,1,.74,1.56,1.13,1.13,0,0,0,.2.84C380,176.11,380.18,176.22,380.33,176.35Z" transform="translate(-0.17 0.05)"/><path class="cls-7" d="M378,172.44c0-.38,0-0.75,0-1.12a0.22,0.22,0,0,1,.1-0.17,0.54,0.54,0,0,0,.31-0.5h-2.29v-1.29h4.18a2.71,2.71,0,0,0-.41.39,0.92,0.92,0,0,0-.17.46,3.09,3.09,0,0,1-.21,1.23A1.76,1.76,0,0,1,378,172.44Z" transform="translate(-0.17 0.05)"/><path class="cls-7" d="M368.32,169.36h2.29v1.29h-0.34a0.69,0.69,0,0,0,.73.66c0.5,0,1,0,1.51,0v1.2a20.15,20.15,0,0,1-2.18,0A1.8,1.8,0,0,1,369,171c0-.26,0-0.53,0-0.79a0.82,0.82,0,0,0-.35-0.59Z" transform="translate(-0.17 0.05)"/><path class="cls-7" d="M375.86,171h-1.2a0.93,0.93,0,0,1,0-.16c0-.68,0-1.36.11-2a1.88,1.88,0,0,1,1.58-1.31c0.27,0,.54,0,0.81,0a1,1,0,0,0,.68-0.57v2.2h-1.27l0-.3a0.61,0.61,0,0,0-.59.61C375.91,170,375.88,170.49,375.86,171Z" transform="translate(-0.17 0.05)"/><path class="cls-7" d="M372.46,176.35h-4.1l0.32-.27a0.69,0.69,0,0,0,.24-0.59,2.53,2.53,0,0,1,.19-1.1,1.76,1.76,0,0,1,1.23-1.07l0.23-.07c0,0.43,0,.84,0,1.25a0.41,0.41,0,0,1-.11.15l-0.28.39,0.06,0.06h2.23v1.25Z" transform="translate(-0.17 0.05)"/><path class="cls-7" d="M370.84,172.81h1.27v2h-1.27v-2Z" transform="translate(-0.17 0.05)"/><path class="cls-7" d="M376.55,170.91h1.27v2h-1.27v-2Z" transform="translate(-0.17 0.05)"/><path class="cls-7" d="M374.41,174.4h-2.07v-1.23h2.07v1.23Z" transform="translate(-0.17 0.05)"/><path class="cls-7" d="M372.35,169.41h2.07v1.23h-2.07v-1.23Z" transform="translate(-0.17 0.05)"/><path class="cls-7" d="M374.23,176.34v-1.22h2v1.22h-2Z" transform="translate(-0.17 0.05)"/><path class="cls-7" d="M374.65,172.81h1.22v2h-1.22v-2Z" transform="translate(-0.17 0.05)"/><path class="cls-7" d="M374.24,172.54v-1.22h2v1.22h-2Z" transform="translate(-0.17 0.05)"/><path class="cls-7" d="M374,170.91v2h-1.18v-2H374Z" transform="translate(-0.17 0.05)"/><polygon class="cls-8" points="172.81 200.84 152.28 186.76 158.38 154.23 178.91 168.32 172.81 200.84"/><polygon class="cls-9" points="165.06 158.81 158.96 191.34 164.22 194.95 170.32 162.42 165.06 158.81"/><polygon class="cls-10" points="205.35 168.11 178.12 172.53 172.81 200.84 200.26 195.22 205.35 168.11"/><polygon class="cls-9" points="190.31 165.98 184.21 198.51 190.37 197.25 196.47 164.72 190.31 165.98"/><polygon class="cls-10" points="178.12 173.19 155.65 158.74 157.3 149.98 179.77 164.43 178.12 173.19"/><polygon class="cls-11" points="164.75 154.77 163.1 163.53 168.39 166.94 170.04 158.17 164.75 154.77"/><polygon class="cls-12" points="209.03 159.95 179.77 164.43 178.12 173.19 207.44 168.46 209.03 159.95"/><polygon class="cls-11" points="191.75 162.6 190.13 171.25 196.24 170.27 197.85 161.66 191.75 162.6"/><polygon class="cls-13" points="157.3 149.98 184.54 148.36 209.03 159.95 179.85 164.6 157.3 149.98"/><polygon class="cls-11" points="197.94 154.7 192.27 152.02 164.73 154.88 167.37 156.57 170.02 158.28 197.94 154.7"/><polygon class="cls-14" points="197.84 161.74 175.18 148.98 168.71 149.4 191.73 162.71 197.84 161.74"/><path class="cls-15" d="M183.23,154.58s14.52,4.74,16.69,7.75-2.65,7.55-3.26,8.84c0,0-.83.39-1.35-1.05S183.94,156.78,183,156.32l-2.43-1.15c-1-.46-17.07-1.29-18.5-0.77s-1.67-.37-1.67-0.37c0.61-1.29,1.05-7.89,4.76-8.14s16.17,8,16.17,8Z" transform="translate(-0.17 0.05)"/><path class="cls-9" d="M182.43,153.68s-14.74-7.89-13.55-14.64a8.86,8.86,0,0,1,1.4-2.4s-4.19.15-5.09,2.91-2.82,10.76,15.8,14.37C181,153.92,182.07,154.44,182.43,153.68Z" transform="translate(-0.17 0.05)"/><path class="cls-16" d="M199.92,162.33A10.17,10.17,0,0,0,196.7,160a4.13,4.13,0,0,1,0,4.31c-1.71,2.64-3.85.45-7.46-2.17a2.66,2.66,0,0,0-1-.49c3.23,3.53,6.79,7.64,7.07,8.45,0.52,1.44,1.35,1.05,1.35,1.05C197.26,169.89,202.08,165.35,199.92,162.33Z" transform="translate(-0.17 0.05)"/><path class="cls-17" d="M170.05,136.66a9.15,9.15,0,0,0-1.38.23c-1.27,1.48-3.12,4.88,1.59,9A77.36,77.36,0,0,0,182,154a0.68,0.68,0,0,0,.42-0.37s-14.74-7.89-13.55-14.64a9.35,9.35,0,0,1,1.28-2.27Z" transform="translate(-0.17 0.05)"/><path class="cls-14" d="M182.71,153.94s2.75-6.94-.71-12.56-10.19-8.53-13.89-5.76-3.3,6.15-3.3,6.15,0.47-3,4.65-3.65c3.52-.58,8.08,3.42,10.94,8.89C182,150,180.86,155.32,182.71,153.94Z" transform="translate(-0.17 0.05)"/><path class="cls-9" d="M182.42,153.87s15.46,6.37,19.91,1.17a9,9,0,0,0,1-2.6s2.55,3.33,1,5.78-6.52,9-21.14-3.07C183.15,155.15,182.07,154.63,182.42,153.87Z" transform="translate(-0.17 0.05)"/><path class="cls-17" d="M203.3,152.44a9,9,0,0,1-1,2.6c-3.76,4.4-15.38.53-18.89-.78a1.63,1.63,0,0,0-.06.37s13.6,7,18,2.92c2.47-2.27,2.61-3.74,2.26-4.59C203.45,152.63,203.3,152.44,203.3,152.44Z" transform="translate(-0.17 0.05)"/><path class="cls-18" d="M182,153.82s3.62-6.53,10.15-7.43,13.06,2.45,13.27,7.07-2.65,6.46-2.65,6.46,2-2.25-.13-5.91c-1.79-3.09-7.78-4.07-13.82-2.81C185.52,151.9,182.15,156.14,182,153.82Z" transform="translate(-0.17 0.05)"/><path class="cls-15" d="M183.08,151.32s-3.92,3.23-2.69,4.21,1.89,1.69,2.32,1S185.65,151.14,183.08,151.32Z" transform="translate(-0.17 0.05)"/><path class="cls-19" d="M165.11,145.89c-3.7.25-4.15,6.85-4.76,8.14,0,0,.23.89,1.67,0.37a3.11,3.11,0,0,1,.65-0.1h0a11.16,11.16,0,0,1,1.57-6.57c1-1.44,3.12-1.23,5-.69A10.62,10.62,0,0,0,165.11,145.89Z" transform="translate(-0.17 0.05)"/><path class="cls-3" d="M199.95,187.17c-1.38,0-5.9,3.87-7.69,4.42-4.19,1.29-8.59,1.14-12.91.81-8.19-.63-16.36-3.24-24.11-5.76-9.19-3-18.15-6.67-27.16-10.17-13.37-5.2-26.88-11.63-40.74-15.38,22.62-7.49,38.77-25.16,46-47.89,7-22.08,2.15-53.93-26.24-54.9-45.21-1.55-89.78,80.11-38.4,101.91,0.59-.32-17.09,12.15-12.24,12.15,3,0,6.91-4.32,11-4.59,6.06-.39,12.89,2.6,18.53,4.48,13,4.34,25.72,9.83,38.44,15,14.31,5.86,29.71,13.74,45.34,15.15,8.87,0.8,16.06-.76,23.3-6.13C193.62,195.9,203.34,187.17,199.95,187.17ZM98.2,66.34c48,0,31.28,83.6-9.79,86.39C37.72,156.19,51.68,66.34,98.2,66.34Z" transform="translate(-0.17 0.05)"/></svg>